<?xml version="1.0" encoding="UTF-8" standalone="no"?>
<!-- Created with Inkscape (http://www.inkscape.org/) -->

<svg
   width="135.5089mm"
   height="138.53821mm"
   viewBox="0 0 135.5089 138.53821"
   version="1.1"
   id="svg1"
   xml:space="preserve"
   xmlns:inkscape="http://www.inkscape.org/namespaces/inkscape"
   xmlns:sodipodi="http://sodipodi.sourceforge.net/DTD/sodipodi-0.dtd"
   xmlns="http://www.w3.org/2000/svg"
   xmlns:svg="http://www.w3.org/2000/svg"><sodipodi:namedview
     id="namedview1"
     pagecolor="#ffffff"
     bordercolor="#000000"
     borderopacity="0.25"
     inkscape:showpageshadow="2"
     inkscape:pageopacity="0.0"
     inkscape:pagecheckerboard="0"
     inkscape:deskcolor="#d1d1d1"
     inkscape:document-units="mm"
     showgrid="true"><inkscape:grid
       id="grid1"
       units="mm"
       originx="-46.63611"
       originy="-77.951333"
       spacingx="0.99999998"
       spacingy="1"
       empcolor="#0099e5"
       empopacity="0.30196078"
       color="#0099e5"
       opacity="0.14901961"
       empspacing="5"
       enabled="true"
       visible="true" /><inkscape:page
       x="0"
       y="-1.1920094e-12"
       width="135.5089"
       height="138.53819"
       id="page2"
       margin="0"
       bleed="0" /></sodipodi:namedview><defs
     id="defs1" /><g
     inkscape:label="Layer 1"
     inkscape:groupmode="layer"
     id="layer1"
     transform="translate(-46.636107,-77.951338)"><path
       style="fill:#000000;stroke-width:2.41675"
       d="m 89.221094,215.98758 c -3.838906,-0.25316 -6.036179,-0.73163 -7.715702,-1.68016 -1.291543,-0.72943 -4.478831,-2.37484 -7.082864,-3.65648 -2.604033,-1.28164 -9.921263,-4.92383 -16.260511,-8.09376 l -11.525906,-5.76348 0.158158,-59.29047 0.158159,-59.290467 11.405827,-0.130828 11.405826,-0.130601 v 20.850024 20.849982 l 13.921818,-1.3e-4 13.921824,-1.5e-4 V 99.235728 78.820392 l 42.100927,9.5e-5 42.10092,8.4e-5 v 10.055314 10.055303 l -30.86282,-1e-4 -30.86285,-7e-5 v 10.360012 10.36003 h 31.03056 31.03056 v 10.05532 10.05532 h -30.86279 -30.86284 v 38.08833 38.08831 H 109.39014 98.360888 l -0.409912,-2.59001 c -0.225461,-1.4245 -0.319429,-18.5643 -0.208851,-38.08847 l 0.201061,-35.49846 -13.928021,1.4e-4 -13.928022,1.6e-4 0.173931,30.54235 0.173931,30.54236 11.629236,7.16995 c 9.93616,6.1261 14.103458,8.86448 12.826202,8.42829 -0.166042,-0.0566 -2.71728,-0.2624 -5.669375,-0.45707 z m 45.290586,-38.89932 -0.003,-16.60652 h 10.39944 10.39942 v 6.93651 6.93651 l -10.39669,9.66999 -10.39669,9.67001 z"
       id="path1"
       sodipodi:nodetypes="sssscccccccccccccccccccccccccccccsscccccssssccccccccc"
       inkscape:export-filename="logoHF.svg"
       inkscape:export-xdpi="96"
       inkscape:export-ydpi="96" /></g></svg>
